<?xml version="1.0" encoding="UTF-8" standalone="no"?>
<!-- Created with Inkscape (http://www.inkscape.org/) -->

<svg
   xmlns:dc="http://purl.org/dc/elements/1.1/"
   xmlns:cc="http://creativecommons.org/ns#"
   xmlns:rdf="http://www.w3.org/1999/02/22-rdf-syntax-ns#"
   xmlns:svg="http://www.w3.org/2000/svg"
   xmlns="http://www.w3.org/2000/svg"
   xmlns:sodipodi="http://sodipodi.sourceforge.net/DTD/sodipodi-0.dtd"
   xmlns:inkscape="http://www.inkscape.org/namespaces/inkscape"
   width="3.7044542mm"
   height="3.7043381mm"
   viewBox="0 0 3.7044542 3.704338"
   version="1.1"
   id="svg8"
   inkscape:version="0.92.4 (5da689c313, 2019-01-14)"
   sodipodi:docname="icon.svg">
  <defs
     id="defs2" />
  <sodipodi:namedview
     id="base"
     pagecolor="#ffffff"
     bordercolor="#666666"
     borderopacity="1.0"
     inkscape:pageopacity="0.0"
     inkscape:pageshadow="2"
     inkscape:zoom="15.839192"
     inkscape:cx="-12.505467"
     inkscape:cy="9.4547144"
     inkscape:document-units="mm"
     inkscape:current-layer="text832"
     showgrid="false"
     inkscape:window-width="1920"
     inkscape:window-height="1017"
     inkscape:window-x="-8"
     inkscape:window-y="-8"
     inkscape:window-maximized="1" />
  <metadata
     id="metadata5">
    <rdf:RDF>
      <cc:Work
         rdf:about="">
        <dc:format>image/svg+xml</dc:format>
        <dc:type
           rdf:resource="http://purl.org/dc/dcmitype/StillImage" />
        <dc:title />
      </cc:Work>
    </rdf:RDF>
  </metadata>
  <g
     inkscape:label="Ebene 1"
     inkscape:groupmode="layer"
     id="layer1"
     transform="translate(-106.27081,-24.387904)">
    <g
       aria-label="OS"
       transform="scale(0.8620984,1.1599604)"
       style="font-style:normal;font-weight:normal;font-size:18.36522293px;line-height:1.25;font-family:sans-serif;letter-spacing:0px;word-spacing:0px;fill:#e0e0e0;fill-opacity:1;stroke:none;stroke-width:0.45913059"
       id="text832">
      <path
         d="m 124.25127,24.218277 q -0.292,0 -0.51562,-0.14202 -0.22177,-0.144171 -0.34375,-0.40454 -0.12197,-0.262519 -0.12197,-0.606809 v -0.886544 q 0,-0.34429 0.12197,-0.604658 0.12198,-0.26252 0.34375,-0.40454 0.22362,-0.144171 0.51562,-0.144171 0.292,0 0.51377,0.144171 0.22362,0.14202 0.3456,0.40454 0.12197,0.260368 0.12197,0.604658 v 0.886544 q 0,0.34429 -0.12197,0.606809 -0.12198,0.260369 -0.3456,0.40454 -0.22177,0.14202 -0.51377,0.14202 z m 0,-0.589595 q 0.13676,0 0.24025,-0.06671 0.1035,-0.06886 0.15894,-0.193662 0.0573,-0.124805 0.0573,-0.288343 v -0.91667 q 0,-0.163537 -0.0573,-0.288342 -0.0554,-0.124805 -0.15894,-0.19151 -0.10349,-0.06886 -0.24025,-0.06886 -0.13676,0 -0.24025,0.06886 -0.1035,0.06671 -0.16078,0.19151 -0.0554,0.124805 -0.0554,0.288342 v 0.91667 q 0,0.163538 0.0554,0.288343 0.0573,0.124804 0.16078,0.193662 0.10349,0.06671 0.24025,0.06671 z"
         style="font-style:normal;font-variant:normal;font-weight:bold;font-stretch:normal;font-size:3.67304468px;font-family:Bahnschrift;-inkscape-font-specification:Bahnschrift;fill:#e0e0e0;fill-opacity:1;stroke-width:0.51050931"
         id="path814"
         inkscape:connector-curvature="0" />
      <path
         d="m 126.5429,24.218277 q -0.1922,0 -0.37701,-0.04518 -0.18295,-0.04519 -0.34559,-0.131262 -0.16078,-0.08822 -0.2883,-0.210876 v 0 l 0.23471,-0.486309 v 0 q 0.15524,0.148475 0.35853,0.230244 0.20329,0.07962 0.41766,0.07962 0.24765,0 0.38441,-0.09684 0.13677,-0.09898 0.13677,-0.277583 v -0.0022 q 0,-0.124804 -0.061,-0.197966 -0.061,-0.07316 -0.15893,-0.107585 -0.098,-0.03442 -0.25134,-0.0624 -0.005,-0.0022 -0.0111,-0.0022 -0.004,0 -0.009,-0.0022 l -0.0407,-0.0065 q -0.26981,-0.04949 -0.44723,-0.122653 -0.17742,-0.07531 -0.30125,-0.260368 -0.12382,-0.187208 -0.12382,-0.529345 v -0.0022 q 0,-0.303405 0.11643,-0.518586 0.11644,-0.215181 0.33821,-0.327075 0.22177,-0.11404 0.53595,-0.11404 0.14415,0 0.29384,0.03873 0.15154,0.03873 0.2957,0.111893 0.14415,0.07316 0.27351,0.176448 v 0 l -0.21437,0.499219 v 0 q -0.15524,-0.124805 -0.32526,-0.193662 -0.16818,-0.06886 -0.32342,-0.06886 -0.23286,0 -0.36038,0.09038 -0.12752,0.08822 -0.12752,0.249609 v 0.0022 q 0,0.135564 0.0666,0.215181 0.0666,0.07747 0.16448,0.114041 0.098,0.03658 0.27537,0.07746 0.007,0.0022 0.0148,0.0043 0.007,0 0.0147,0.0022 0.0111,0.0022 0.0203,0.0065 0.0111,0.0022 0.0222,0.0043 0.25504,0.05809 0.42507,0.142019 0.17186,0.08177 0.28645,0.266824 0.11458,0.182904 0.11458,0.501371 v 0.0043 q 0,0.2991 -0.12012,0.51213 -0.12013,0.213028 -0.35115,0.324922 -0.22916,0.111893 -0.55258,0.111893 z"
         style="font-style:normal;font-variant:normal;font-weight:bold;font-stretch:normal;font-size:3.67304468px;font-family:Bahnschrift;-inkscape-font-specification:Bahnschrift;fill:#e0e0e0;fill-opacity:1;stroke-width:0.51050931"
         id="path816"
         inkscape:connector-curvature="0" />
    </g>
  </g>
</svg>
